<svg xmlns="http://www.w3.org/2000/svg" xmlns:xlink="http://www.w3.org/1999/xlink" width="500" zoomAndPan="magnify" viewBox="0 0 375 374.999991"  preserveAspectRatio="xMidYMid meet" version="1.0"><defs><g/></g><g fill="#000000" fill-opacity="1"><g transform="translate(118.364118, 174.478753)"><g><path d="M 22.4375 -20.953125 C 22.4375 -18.015625 21.394531 -15.789062 19.3125 -14.28125 C 17.226562 -12.769531 14.671875 -12.015625 11.640625 -12.015625 L 8.296875 -12.015625 L 8.296875 0 L 2.703125 0 L 2.703125 -27.421875 C 2.703125 -27.472656 2.601562 -27.875 2.40625 -28.625 C 2.21875 -29.375 2.109375 -29.800781 2.078125 -29.90625 L 11.5625 -29.90625 C 14.832031 -29.90625 17.460938 -29.203125 19.453125 -27.796875 C 21.441406 -26.398438 22.4375 -24.117188 22.4375 -20.953125 Z M 16.46875 -20.953125 C 16.46875 -22.484375 16.070312 -23.679688 15.28125 -24.546875 C 14.488281 -25.421875 13.332031 -25.859375 11.8125 -25.859375 L 8.328125 -25.859375 L 8.328125 -15.96875 L 11.765625 -15.96875 C 13.234375 -15.96875 14.382812 -16.425781 15.21875 -17.34375 C 16.050781 -18.257812 16.46875 -19.460938 16.46875 -20.953125 Z M 16.46875 -20.953125 "/></g></g></g><g fill="#000000" fill-opacity="1"><g transform="translate(141.853297, 174.478753)"><g><path d="M 25.703125 0 L 19.65625 0 L 16.71875 -8.578125 L 7.890625 -8.578125 L 4.828125 0 L 0.078125 0 L 10.671875 -29.90625 L 15.125 -29.90625 Z M 15.359375 -12.578125 C 14.054688 -16.585938 13.023438 -19.992188 12.265625 -22.796875 C 11.335938 -19.390625 10.34375 -15.984375 9.28125 -12.578125 Z M 15.359375 -12.578125 "/></g></g></g><g fill="#000000" fill-opacity="1"><g transform="translate(167.630121, 174.478753)"><g><path d="M 23.078125 -25.859375 L 14.671875 -25.859375 L 14.671875 0 L 8.828125 0 L 8.828125 -25.859375 L 0.53125 -25.859375 L 0.53125 -29.90625 L 23.078125 -29.90625 Z M 23.078125 -25.859375 "/></g></g></g><g fill="#000000" fill-opacity="1"><g transform="translate(191.241854, 174.478753)"><g><path d="M 25 -2.53125 C 23.289062 -1.46875 21.691406 -0.695312 20.203125 -0.21875 C 18.722656 0.25 17.03125 0.484375 15.125 0.484375 C 10.519531 0.484375 6.984375 -0.957031 4.515625 -3.84375 C 2.046875 -6.726562 0.8125 -10.5 0.8125 -15.15625 C 0.8125 -19.59375 2.101562 -23.253906 4.6875 -26.140625 C 7.28125 -29.035156 10.769531 -30.484375 15.15625 -30.484375 C 16.84375 -30.484375 18.613281 -30.238281 20.46875 -29.75 C 22.320312 -29.257812 23.78125 -28.535156 24.84375 -27.578125 L 21.90625 -23.828125 C 21.164062 -24.640625 20.179688 -25.289062 18.953125 -25.78125 C 17.734375 -26.269531 16.535156 -26.515625 15.359375 -26.515625 C 13.347656 -26.515625 11.679688 -25.941406 10.359375 -24.796875 C 9.035156 -23.648438 8.128906 -22.273438 7.640625 -20.671875 C 7.148438 -19.066406 6.90625 -17.269531 6.90625 -15.28125 C 6.90625 -13.96875 7.070312 -12.640625 7.40625 -11.296875 C 7.75 -9.953125 8.25 -8.671875 8.90625 -7.453125 C 9.5625 -6.242188 10.457031 -5.253906 11.59375 -4.484375 C 12.738281 -3.722656 14.019531 -3.34375 15.4375 -3.34375 C 17.976562 -3.34375 20.3125 -4.367188 22.4375 -6.421875 Z M 25 -2.53125 "/></g></g></g><g fill="#000000" fill-opacity="1"><g transform="translate(216.732727, 174.478753)"><g><path d="M 26.5625 0 L 20.921875 0 L 20.921875 -13.359375 L 8.375 -13.359375 L 8.375 0 L 2.734375 0 L 2.734375 -27.421875 C 2.734375 -27.441406 2.6875 -27.644531 2.59375 -28.03125 C 2.5 -28.414062 2.40625 -28.8125 2.3125 -29.21875 C 2.21875 -29.625 2.171875 -29.851562 2.171875 -29.90625 L 8.375 -29.90625 L 8.375 -17.40625 L 20.921875 -17.40625 L 20.921875 -29.90625 L 26.5625 -29.90625 Z M 26.5625 0 "/></g></g></g><g fill="#000000" fill-opacity="1"><g transform="translate(245.90016, 174.478753)"><g><path d="M 23.9375 -8.296875 C 23.9375 -6.359375 23.390625 -4.742188 22.296875 -3.453125 C 21.210938 -2.160156 19.894531 -1.257812 18.34375 -0.75 C 16.789062 -0.25 15.078125 0 13.203125 0 L 2.734375 0 L 2.734375 -27.421875 C 2.734375 -27.441406 2.6875 -27.644531 2.59375 -28.03125 C 2.5 -28.414062 2.40625 -28.8125 2.3125 -29.21875 C 2.21875 -29.625 2.171875 -29.851562 2.171875 -29.90625 L 12.78125 -29.90625 C 14.0625 -29.90625 15.238281 -29.800781 16.3125 -29.59375 C 17.394531 -29.394531 18.425781 -29.050781 19.40625 -28.5625 C 20.382812 -28.070312 21.148438 -27.34375 21.703125 -26.375 C 22.265625 -25.40625 22.546875 -24.253906 22.546875 -22.921875 C 22.546875 -21.203125 21.960938 -19.726562 20.796875 -18.5 C 19.628906 -17.28125 18.1875 -16.546875 16.46875 -16.296875 C 18.5625 -15.941406 20.328125 -15.035156 21.765625 -13.578125 C 23.210938 -12.128906 23.9375 -10.367188 23.9375 -8.296875 Z M 16.625 -22.140625 C 16.625 -23.398438 16.25 -24.332031 15.5 -24.9375 C 14.75 -25.550781 13.738281 -25.859375 12.46875 -25.859375 L 8.375 -25.859375 L 8.375 -18.21875 L 12.578125 -18.21875 C 13.753906 -18.21875 14.722656 -18.578125 15.484375 -19.296875 C 16.242188 -20.023438 16.625 -20.972656 16.625 -22.140625 Z M 18.015625 -8.953125 C 18.015625 -10.660156 17.390625 -11.957031 16.140625 -12.84375 C 14.890625 -13.726562 13.363281 -14.171875 11.5625 -14.171875 L 8.375 -14.171875 L 8.375 -4.046875 L 12.828125 -4.046875 C 14.378906 -4.046875 15.628906 -4.476562 16.578125 -5.34375 C 17.535156 -6.21875 18.015625 -7.421875 18.015625 -8.953125 Z M 18.015625 -8.953125 "/></g></g></g><g fill="#000000" fill-opacity="1"><g transform="translate(270.982514, 174.478753)"><g><path d="M 29.34375 -14.90625 C 29.34375 -10.414062 28.046875 -6.734375 25.453125 -3.859375 C 22.867188 -0.984375 19.351562 0.453125 14.90625 0.453125 C 10.46875 0.453125 7.003906 -0.992188 4.515625 -3.890625 C 2.023438 -6.796875 0.78125 -10.5 0.78125 -15 C 0.78125 -19.519531 2.03125 -23.207031 4.53125 -26.0625 C 7.039062 -28.925781 10.515625 -30.359375 14.953125 -30.359375 C 19.503906 -30.359375 23.039062 -28.929688 25.5625 -26.078125 C 28.082031 -23.234375 29.34375 -19.507812 29.34375 -14.90625 Z M 23.296875 -14.75 C 23.296875 -16.195312 23.15625 -17.566406 22.875 -18.859375 C 22.601562 -20.148438 22.164062 -21.390625 21.5625 -22.578125 C 20.96875 -23.765625 20.101562 -24.710938 18.96875 -25.421875 C 17.84375 -26.128906 16.519531 -26.484375 15 -26.484375 C 13.5 -26.484375 12.1875 -26.144531 11.0625 -25.46875 C 9.945312 -24.800781 9.085938 -23.898438 8.484375 -22.765625 C 7.890625 -21.640625 7.457031 -20.441406 7.1875 -19.171875 C 6.914062 -17.910156 6.78125 -16.570312 6.78125 -15.15625 C 6.78125 -13.71875 6.914062 -12.347656 7.1875 -11.046875 C 7.457031 -9.753906 7.890625 -8.515625 8.484375 -7.328125 C 9.085938 -6.148438 9.953125 -5.207031 11.078125 -4.5 C 12.210938 -3.789062 13.546875 -3.4375 15.078125 -3.4375 C 16.578125 -3.4375 17.882812 -3.769531 19 -4.4375 C 20.113281 -5.101562 20.96875 -6 21.5625 -7.125 C 22.164062 -8.257812 22.601562 -9.457031 22.875 -10.71875 C 23.15625 -11.988281 23.296875 -13.332031 23.296875 -14.75 Z M 23.296875 -14.75 "/></g></g></g><g fill="#000000" fill-opacity="1"><g transform="translate(301.089516, 174.478753)"><g><path d="M 29.34375 -14.90625 C 29.34375 -10.414062 28.046875 -6.734375 25.453125 -3.859375 C 22.867188 -0.984375 19.351562 0.453125 14.90625 0.453125 C 10.46875 0.453125 7.003906 -0.992188 4.515625 -3.890625 C 2.023438 -6.796875 0.78125 -10.5 0.78125 -15 C 0.78125 -19.519531 2.03125 -23.207031 4.53125 -26.0625 C 7.039062 -28.925781 10.515625 -30.359375 14.953125 -30.359375 C 19.503906 -30.359375 23.039062 -28.929688 25.5625 -26.078125 C 28.082031 -23.234375 29.34375 -19.507812 29.34375 -14.90625 Z M 23.296875 -14.75 C 23.296875 -16.195312 23.15625 -17.566406 22.875 -18.859375 C 22.601562 -20.148438 22.164062 -21.390625 21.5625 -22.578125 C 20.96875 -23.765625 20.101562 -24.710938 18.96875 -25.421875 C 17.84375 -26.128906 16.519531 -26.484375 15 -26.484375 C 13.5 -26.484375 12.1875 -26.144531 11.0625 -25.46875 C 9.945312 -24.800781 9.085938 -23.898438 8.484375 -22.765625 C 7.890625 -21.640625 7.457031 -20.441406 7.1875 -19.171875 C 6.914062 -17.910156 6.78125 -16.570312 6.78125 -15.15625 C 6.78125 -13.71875 6.914062 -12.347656 7.1875 -11.046875 C 7.457031 -9.753906 7.890625 -8.515625 8.484375 -7.328125 C 9.085938 -6.148438 9.953125 -5.207031 11.078125 -4.5 C 12.210938 -3.789062 13.546875 -3.4375 15.078125 -3.4375 C 16.578125 -3.4375 17.882812 -3.769531 19 -4.4375 C 20.113281 -5.101562 20.96875 -6 21.5625 -7.125 C 22.164062 -8.257812 22.601562 -9.457031 22.875 -10.71875 C 23.15625 -11.988281 23.296875 -13.332031 23.296875 -14.75 Z M 23.296875 -14.75 "/></g></g></g><g fill="#000000" fill-opacity="1"><g transform="translate(331.196518, 174.478753)"><g><path d="M 24.390625 0 L 17.859375 0 L 8.328125 -15.15625 L 8.328125 0 L 2.703125 0 L 2.703125 -27.421875 C 2.703125 -27.441406 2.648438 -27.644531 2.546875 -28.03125 C 2.453125 -28.414062 2.359375 -28.8125 2.265625 -29.21875 C 2.171875 -29.625 2.125 -29.851562 2.125 -29.90625 L 8.328125 -29.90625 L 8.328125 -16.546875 L 18.3125 -29.90625 L 23.53125 -29.90625 L 13.8125 -16.828125 Z M 24.390625 0 "/></g></g></g></svg>